<svg width="57" height="56" viewBox="0 0 57 56" fill="none" xmlns="http://www.w3.org/2000/svg">
<path d="M48.6875 5.83334H8.3125L11.875 45.5L28.5 50.1667L45.125 45.5L48.6875 5.83334Z" fill="#0277BD"/>
<path d="M28.5 9.33334V46.55L41.8 42.8167L44.7688 9.33334H28.5Z" fill="#039BE5"/>
<path d="M39.3062 15.1667H28.5V19.8333H34.3187L33.9625 24.5H28.5V29.1667H33.725L33.3688 34.4167L28.5 36.05V40.95L37.8812 37.9167L38.7125 24.5L39.3062 15.1667Z" fill="white"/>
<path d="M28.5 15.1667V19.8333H17.9313L17.575 15.1667H28.5ZM23.0375 24.5L23.275 29.1667H28.5V24.5H23.0375ZM23.5125 31.5H18.7625L19.1188 37.9167L28.5 40.95V36.05L23.6313 34.4167L23.5125 31.5Z" fill="#EEEEEE"/>
</svg>
