<svg width="29" height="29" viewBox="0 0 29 29" fill="none" xmlns="http://www.w3.org/2000/svg">
<path d="M24.7709 3.02083H4.22925L6.04175 23.5625L14.5001 25.9792L22.9584 23.5625L24.7709 3.02083Z" fill="#00C2FF"/>
<path d="M14.5 4.83333V24.1062L21.2667 22.1729L22.7771 4.83333H14.5Z" fill="#00C2FF"/>
<path d="M14.5 15.1042V12.6875H19.6958L19.2729 19.6354L14.5 21.2063V18.6688L16.9771 17.8229L17.1583 15.1042H14.5V15.1042ZM19.8771 10.2708L20.0583 7.85417H14.5V10.2708H19.8771Z" fill="white"/>
<path d="M14.5001 18.6688V21.2063L9.7272 19.6354L9.48553 16.3125H11.9022L12.023 17.8229L14.5001 18.6688ZM11.5397 10.2708H14.5001V7.85417H9.0022L9.42511 15.1042H14.5001V12.6875H11.7209L11.5397 10.2708Z" fill="#EEEEEE"/>
</svg>
