<svg width="57" height="56" viewBox="0 0 57 56" fill="none" xmlns="http://www.w3.org/2000/svg">
<path d="M48.6875 5.83334H8.3125L11.875 45.5L28.5 50.1667L45.125 45.5L48.6875 5.83334Z" fill="#E65100"/>
<path d="M28.5 9.33334V46.55L41.8 42.8167L44.7688 9.33334H28.5Z" fill="#FF6D00"/>
<path d="M28.5 29.1667V24.5H38.7125L37.8812 37.9167L28.5 40.95V36.05L33.3687 34.4167L33.725 29.1667H28.5V29.1667ZM39.0688 19.8333L39.425 15.1667H28.5V19.8333H39.0688Z" fill="white"/>
<path d="M28.5 36.05V40.95L19.1188 37.9167L18.6438 31.5H23.3938L23.6313 34.4167L28.5 36.05ZM22.6813 19.8333H28.5V15.1667H17.6938L18.525 29.1667H28.5V24.5H23.0375L22.6813 19.8333Z" fill="#EEEEEE"/>
</svg>
