<svg width="57" height="56" viewBox="0 0 57 56" fill="none" xmlns="http://www.w3.org/2000/svg">
<path d="M7.125 49V7H49.875V49H7.125Z" fill="#FFD600"/>
<path d="M35.0764 38.4382C35.8981 39.7495 36.7911 41.006 38.6828 41.006C40.2717 41.006 41.1053 40.2302 41.1053 39.1568C41.1053 37.8723 40.2432 37.4162 38.4952 36.6683L37.5369 36.267C34.7712 35.1143 32.9318 33.67 32.9318 30.6192C32.9318 27.8075 35.1227 25.6678 38.5463 25.6678C40.9842 25.6678 42.7358 26.4973 43.9993 28.6697L41.0139 30.5445C40.3572 29.3918 39.6471 28.938 38.5463 28.938C37.4229 28.938 36.7116 29.6345 36.7116 30.5445C36.7116 31.6692 37.4241 32.1242 39.0688 32.8207L40.0271 33.222C43.2868 34.5858 45.125 35.9788 45.125 39.1102C45.125 42.4842 42.4128 44.3333 38.7719 44.3333C35.2106 44.3333 33.1883 42.5775 32.0625 40.404L35.0764 38.4382ZM21.318 38.5338C21.9189 39.5908 22.8321 40.404 24.1454 40.404C25.4018 40.404 26.125 39.9163 26.125 38.0205V25.6667H30.0829V38.6178C30.0829 42.546 27.7638 44.3333 24.377 44.3333C21.3168 44.3333 19.1081 42.2963 18.2079 40.404L21.318 38.5338Z" fill="#000001"/>
</svg>
