<svg width="57" height="56" viewBox="0 0 57 56" fill="none" xmlns="http://www.w3.org/2000/svg">
<path d="M7.125 49V7H49.875V49H7.125Z" fill="#81D4FA"/>
<path d="M34.927 39.1325C35.7068 40.3166 36.7323 41.506 38.6828 41.506C39.553 41.506 40.2819 41.2938 40.8037 40.8732C41.3368 40.4434 41.6053 39.8337 41.6053 39.1568C41.6053 38.3696 41.3266 37.7943 40.7791 37.33C40.2771 36.9043 39.5503 36.5759 38.6919 36.2086L38.6883 36.2071L37.73 35.8058L37.7292 35.8055C36.369 35.2385 35.2987 34.6236 34.5672 33.8186C33.852 33.0315 33.4318 32.0305 33.4318 30.6192C33.4318 29.3492 33.9237 28.2475 34.7914 27.4592C35.6614 26.6688 36.939 26.1678 38.5462 26.1678C39.7094 26.1678 40.6701 26.3657 41.4784 26.7956C42.1701 27.1634 42.7775 27.7155 43.3113 28.5113L41.172 29.8548C40.8925 29.4498 40.5828 29.1256 40.2186 28.8895C39.7228 28.568 39.1698 28.438 38.5462 28.438C37.8809 28.438 37.2964 28.6455 36.8722 29.0292C36.4456 29.4151 36.2116 29.9531 36.2116 30.5445C36.2116 31.2422 36.4453 31.7756 36.941 32.2167C37.395 32.6206 38.0593 32.9362 38.8738 33.2811L38.8756 33.2818L39.8339 33.6832L39.8341 33.6832C41.4522 34.3602 42.6447 35.0171 43.4364 35.8481C44.2052 36.6551 44.625 37.6581 44.625 39.1102C44.625 40.6479 44.0142 41.8064 43.0062 42.5928C41.984 43.3903 40.5142 43.8333 38.7719 43.8333C37.0773 43.8333 35.7784 43.4169 34.7767 42.7647C33.903 42.1959 33.2342 41.4337 32.7247 40.569L34.927 39.1325ZM21.156 39.2147C21.8141 40.1619 22.7866 40.904 24.1454 40.904C24.8226 40.904 25.4908 40.7754 25.9704 40.2659C26.4402 39.7669 26.625 39.011 26.625 38.0205V26.1667H29.5829V38.6178C29.5829 40.4821 29.0354 41.7636 28.1585 42.5834C27.2757 43.4087 25.9875 43.8333 24.377 43.8333C21.7651 43.8333 19.8114 42.2226 18.8699 40.5894L21.156 39.2147Z" fill="white" stroke="#00C2FF"/>
</svg>
