<svg width="57" height="57" viewBox="0 0 57 57" fill="none" xmlns="http://www.w3.org/2000/svg">
<path d="M28.5083 53.935C27.8267 53.935 27.151 53.7569 26.5537 53.4125L20.3312 49.7277C19.4014 49.2076 19.855 49.0235 20.1614 48.9179C21.4011 48.4844 21.6517 48.3859 22.9746 47.6342C23.1135 47.5546 23.2952 47.5831 23.4377 47.6674L28.2186 50.5044C28.3908 50.5982 28.6366 50.5982 28.7957 50.5044L47.4359 39.7444C47.6081 39.6459 47.7209 39.4464 47.7209 39.2409V17.7317C47.7209 17.5168 47.6093 17.3256 47.4323 17.2187L28.8004 6.46711C28.6283 6.36499 28.3991 6.36499 28.2269 6.46711L9.59737 17.2175C9.41687 17.3197 9.30169 17.5204 9.30169 17.7258V39.2362C9.30169 39.4416 9.41331 39.6375 9.59144 39.7349L14.6965 42.6835C17.4681 44.0693 19.1615 42.4365 19.1615 40.7942V19.5652C19.1615 19.2624 19.399 19.0285 19.703 19.0285H22.0637C22.3582 19.0285 22.6005 19.2612 22.6005 19.5652V40.8049C22.6005 44.5004 20.5853 46.6236 17.081 46.6236C16.0027 46.6236 15.1537 46.6236 12.7834 45.4575L7.89331 42.6395C6.68444 41.9389 5.9375 40.6315 5.9375 39.2374V17.727C5.9375 16.3269 6.68444 15.0207 7.89212 14.3296L26.5525 3.56486C27.7329 2.89749 29.3004 2.89749 30.4724 3.56486L49.1091 14.3343C50.3108 15.029 51.0625 16.3317 51.0625 17.7317V39.2421C51.0625 40.6374 50.3108 41.9389 49.1079 42.6395L30.4712 53.403C29.8739 53.7486 29.1971 53.9255 28.5071 53.9255" fill="#21A366"/>
<path d="M34.2665 39.1127C26.1108 39.1127 24.4008 35.3685 24.4008 32.2287C24.4008 31.9307 24.6418 31.692 24.9411 31.692H27.3493C27.6153 31.692 27.8398 31.8856 27.8813 32.148C28.2447 34.6014 29.3277 35.8387 34.2594 35.8387C38.1876 35.8387 39.8584 34.9517 39.8584 32.8676C39.8584 31.6682 39.3823 30.7776 33.2797 30.1803C28.1746 29.6768 25.0206 28.5522 25.0206 24.4696C25.0206 20.7088 28.1936 18.4692 33.5077 18.4692C39.4761 18.4692 42.4341 20.5414 42.807 24.9921C42.8213 25.1465 42.7654 25.2949 42.6621 25.4077C42.56 25.5146 42.4151 25.5799 42.2655 25.5799H39.8442C39.5924 25.5799 39.3728 25.403 39.3217 25.1596C38.7386 22.5791 37.3291 21.7538 33.4982 21.7538C29.2101 21.7538 28.7114 23.2465 28.7114 24.3663C28.7114 25.7236 29.2992 26.1202 35.0847 26.8862C40.8144 27.6462 43.5349 28.7197 43.5349 32.7465C43.5349 36.8054 40.147 39.1341 34.2404 39.1341" fill="#21A366"/>
</svg>
