<svg width="57" height="56" viewBox="0 0 57 56" fill="none" xmlns="http://www.w3.org/2000/svg">
<path d="M28.5 31.92C30.7036 31.92 32.49 30.165 32.49 28C32.49 25.8351 30.7036 24.08 28.5 24.08C26.2964 24.08 24.51 25.8351 24.51 28C24.51 30.165 26.2964 31.92 28.5 31.92Z" fill="#39C1D7"/>
<path d="M28.5 32.48C25.9857 32.48 23.94 30.4702 23.94 28C23.94 25.5299 25.9857 23.52 28.5 23.52C31.0143 23.52 33.06 25.5299 33.06 28C33.06 30.4702 31.0143 32.48 28.5 32.48ZM28.5 24.64C26.6139 24.64 25.08 26.147 25.08 28C25.08 29.8531 26.6139 31.36 28.5 31.36C30.3861 31.36 31.92 29.8531 31.92 28C31.92 26.147 30.3861 24.64 28.5 24.64Z" fill="#1F212B"/>
<path d="M50.445 28C50.445 24.9894 46.7548 22.3838 41.0297 20.8331C42.5015 15.1794 42.0483 10.7335 39.4183 9.22488C38.3809 8.6296 37.1224 8.52096 35.678 8.90064C33.5017 9.47296 31.008 11.1462 28.5 13.6041C25.992 11.1462 23.4982 9.47352 21.322 8.90064C19.8776 8.5204 18.619 8.6296 17.5816 9.22488C14.9517 10.7335 14.4985 15.1788 15.9703 20.8331C10.2452 22.3838 6.55499 24.9894 6.55499 28C6.55499 31.0106 10.2452 33.6162 15.9703 35.1674C14.4985 40.8212 14.9517 45.267 17.5816 46.7757C18.2155 47.1391 18.9314 47.3222 19.7226 47.3217C20.2259 47.3217 20.76 47.2478 21.322 47.0999C23.4982 46.527 25.992 44.8543 28.5 42.3965C31.008 44.8543 33.5017 46.527 35.678 47.0999C36.24 47.2478 36.7741 47.3217 37.2774 47.3217C38.0686 47.3217 38.7845 47.1397 39.4183 46.7757C42.0483 45.267 42.5009 40.8212 41.0297 35.1674C46.7548 33.6162 50.445 31.0106 50.445 28ZM36.1203 10.523C36.5336 10.4149 36.9166 10.36 37.2694 10.36C37.7596 10.36 38.1906 10.4653 38.5559 10.6753C40.3184 11.6866 40.678 15.3905 39.3653 20.4254C37.5567 20.0256 35.5834 19.7249 33.4864 19.539C32.2557 17.7957 30.9755 16.2086 29.6856 14.8187C31.9759 12.5636 34.2228 11.0225 36.1203 10.523ZM34.6303 31.5274C33.9583 32.6844 33.2509 33.7926 32.5253 34.8533C31.2371 34.9479 29.8942 35 28.5 35C27.1058 35 25.7629 34.9479 24.4752 34.8533C23.7496 33.7926 23.0422 32.6844 22.3702 31.5274C21.6754 30.3313 21.0518 29.153 20.4932 28.0006C21.0518 26.8481 21.6754 25.6698 22.3702 24.4731C23.0428 23.3156 23.7496 22.2074 24.4758 21.1467C25.7634 21.0521 27.1058 21 28.5 21C29.8942 21 31.2366 21.0521 32.5248 21.1467C33.2504 22.2074 33.9577 23.3162 34.6303 24.4731C35.3252 25.6693 35.9488 26.8475 36.5074 28.0006C35.9488 29.153 35.3252 30.3313 34.6303 31.5274ZM37.4171 29.9852C38.0104 31.3634 38.5006 32.69 38.8974 33.9511C37.6006 34.235 36.2007 34.4719 34.7056 34.6472C35.1855 33.9046 35.6586 33.1453 36.1152 32.3596C36.5775 31.565 37.009 30.7726 37.4171 29.9852ZM28.5 39.9599C27.5675 38.9469 26.6367 37.8252 25.7275 36.6117C26.635 36.6548 27.5584 36.68 28.5 36.68C29.4416 36.68 30.365 36.6548 31.2725 36.6117C30.3633 37.8246 29.4325 38.9463 28.5 39.9599ZM22.2938 34.6472C20.7993 34.4719 19.3988 34.235 18.1021 33.9511C18.4988 32.69 18.989 31.3628 19.5823 29.9852C19.9905 30.7726 20.4225 31.565 20.8842 32.3596C21.3414 33.1458 21.8139 33.9052 22.2938 34.6472ZM19.5829 26.0154C18.9895 24.6372 18.4988 23.31 18.1026 22.0483C19.3994 21.7644 20.7999 21.5275 22.295 21.3522C21.8145 22.0948 21.3419 22.8547 20.8854 23.6404C20.4225 24.4356 19.991 25.228 19.5829 26.0154ZM28.5 16.0406C29.4325 17.0537 30.3633 18.1754 31.2725 19.3889C30.365 19.3452 29.4416 19.32 28.5 19.32C27.5584 19.32 26.635 19.3452 25.7275 19.3883C26.6367 18.1754 27.5675 17.0537 28.5 16.0406ZM36.1152 23.641C35.6586 22.8547 35.1855 22.0954 34.7056 21.3528C36.2007 21.5281 37.6006 21.765 38.8979 22.0489C38.5012 23.3106 38.011 24.6372 37.4176 26.0159C37.009 25.228 36.5775 24.4356 36.1152 23.641ZM18.4441 10.6753C18.81 10.4653 19.2398 10.36 19.7305 10.36C20.0828 10.36 20.467 10.4149 20.8797 10.523C22.7772 11.0225 25.0241 12.563 27.3144 14.8182C26.0245 16.2081 24.7443 17.7957 23.5136 19.5384C21.4166 19.7243 19.4427 20.025 17.6347 20.4249C16.3219 15.3899 16.6816 11.6861 18.4441 10.6753ZM8.26499 28C8.26499 25.9862 11.3436 23.8336 16.4359 22.4554C16.9883 24.2245 17.7133 26.0876 18.6054 28C17.7133 29.9124 16.9883 31.7755 16.4359 33.5446C11.3436 32.1664 8.26499 30.0138 8.26499 28ZM20.8797 45.477C19.8919 45.7358 19.0728 45.6848 18.4441 45.3253C16.6816 44.3139 16.3225 40.6101 17.6347 35.5751C19.4427 35.975 21.4166 36.2757 23.5131 36.4616C24.7437 38.2049 26.0239 39.7919 27.3138 41.1824C25.0241 43.437 22.7772 44.9775 20.8797 45.477ZM38.5559 45.3253C37.9272 45.6859 37.1087 45.7363 36.1203 45.477C34.2228 44.9775 31.9759 43.437 29.6856 41.1818C30.9755 39.7919 32.2557 38.2043 33.4864 36.461C35.5834 36.2751 37.5567 35.9744 39.3648 35.5746C40.678 40.6101 40.3184 44.3139 38.5559 45.3253ZM40.564 33.5446C40.0117 31.7755 39.2867 29.9124 38.3946 28C39.2867 26.0876 40.0117 24.2239 40.564 22.4554C45.6564 23.8336 48.735 25.9862 48.735 28C48.735 30.0138 45.6564 32.1664 40.564 33.5446Z" fill="#39C1D7"/>
<path d="M19.7192 47.6011C18.8807 47.6011 18.1135 47.4046 17.4386 47.017C14.7983 45.5022 14.1423 41.2625 15.6271 35.3629C9.67575 33.7002 6.27 31.024 6.27 28C6.27 24.976 9.67575 22.2998 15.6266 20.6371C14.1423 14.7375 14.7983 10.4978 17.4386 8.98296C18.5432 8.34792 19.8742 8.2292 21.3961 8.63016C23.5154 9.18792 25.9675 10.7694 28.5 13.2104C31.0331 10.7694 33.4852 9.18792 35.6039 8.63016C37.1252 8.23032 38.4568 8.34904 39.562 8.98296C42.2017 10.4978 42.8577 14.7375 41.3735 20.6371C47.3243 22.2998 50.73 24.976 50.73 28C50.73 31.024 47.3243 33.7002 41.3735 35.3629C42.8577 41.2625 42.2022 45.5017 39.562 47.017C38.4636 47.647 37.119 47.7686 35.6045 47.3698C33.4847 46.8121 31.0325 45.2306 28.5 42.7902C25.9675 45.2306 23.5154 46.8126 21.3961 47.3698C20.813 47.5233 20.2498 47.6011 19.7226 47.6011C19.7214 47.6011 19.7203 47.6011 19.7192 47.6011ZM19.7243 8.95944C18.9827 8.95944 18.3141 9.12856 17.7253 9.4668C15.3176 10.8483 14.7647 15.0713 16.2461 20.7637C16.2843 20.9115 16.1954 21.0627 16.0455 21.103C10.2817 22.6643 6.84 25.2431 6.84 28C6.84 30.7569 10.2817 33.3357 16.0461 34.897C16.196 34.9373 16.2849 35.0885 16.2467 35.2363C14.7647 40.9287 15.3176 45.1522 17.7253 46.5332C18.3124 46.8698 18.9833 47.0406 19.7192 47.0406C19.7203 47.0406 19.7214 47.0406 19.7226 47.0406C20.2002 47.0406 20.7132 46.9694 21.2485 46.8289C23.3273 46.2818 25.7657 44.6807 28.2988 42.1977C28.4099 42.089 28.5901 42.089 28.7012 42.1977C31.2343 44.6802 33.6728 46.2812 35.7515 46.8289C37.1161 47.1867 38.308 47.087 39.2747 46.5332C41.6824 45.1517 42.2353 40.9287 40.7533 35.2363C40.7151 35.0885 40.804 34.9373 40.9539 34.897C46.7183 33.3357 50.16 30.7569 50.16 28C50.16 25.2431 46.7183 22.6643 40.9539 21.103C40.804 21.0627 40.7151 20.9115 40.7533 20.7637C42.2347 15.0713 41.6818 10.8478 39.2741 9.4668C38.3057 8.91072 37.1201 8.8116 35.751 9.17112C33.6722 9.71824 31.2343 11.3193 28.7006 13.8023C28.5895 13.911 28.4094 13.911 28.2982 13.8023C25.7646 11.3193 23.3267 9.71824 21.2479 9.17112C20.7115 9.03 20.2031 8.95944 19.7243 8.95944ZM37.27 45.9194C36.8921 45.9194 36.484 45.8623 36.0468 45.7475C34.1481 45.2474 31.879 43.7377 29.4838 41.3795C29.3767 41.2737 29.3727 41.1034 29.4747 40.9931C30.7658 39.6021 32.0363 38.0234 33.2521 36.3014C33.3 36.2331 33.3764 36.1894 33.4607 36.1822C35.5196 35.9996 37.4849 35.7034 39.3026 35.3013C39.4514 35.2682 39.603 35.3578 39.6412 35.5051C40.9727 40.614 40.6119 44.4696 38.6996 45.5666C38.2898 45.8018 37.8115 45.9194 37.27 45.9194ZM30.0795 41.1718C32.3315 43.3524 34.4417 44.7451 36.1939 45.2066C37.1053 45.4457 37.852 45.4042 38.4123 45.0834C40.0397 44.1493 40.3258 40.5625 39.1567 35.9066C37.4308 36.2757 35.5788 36.5518 33.6448 36.7282C32.4957 38.3477 31.2976 39.8406 30.0795 41.1718ZM19.73 45.9194C19.1885 45.9194 18.7103 45.8018 18.3004 45.5672C16.3881 44.4696 16.0267 40.614 17.3588 35.5051C17.397 35.3584 17.5486 35.2705 17.6974 35.3013C19.5145 35.7034 21.4799 35.9996 23.5393 36.1822C23.6231 36.1894 23.7 36.2331 23.7479 36.3014C24.9637 38.0234 26.2343 39.6021 27.5253 40.9931C27.6279 41.1034 27.6239 41.2737 27.5162 41.3795C25.121 43.7371 22.8519 45.2474 20.9538 45.7475C20.516 45.8618 20.1073 45.9194 19.73 45.9194ZM17.8433 35.9066C16.6742 40.5619 16.9604 44.1493 18.5877 45.0834C19.1474 45.4037 19.8941 45.4457 20.8061 45.2066C22.5583 44.7451 24.6685 43.3518 26.9205 41.1718C25.703 39.8406 24.5049 38.3477 23.3558 36.7282C21.4217 36.5518 19.5692 36.2757 17.8433 35.9066ZM28.5 40.2394C28.4196 40.2394 28.3427 40.2058 28.2885 40.147C27.3406 39.1171 26.4018 37.9831 25.4978 36.7769C25.4328 36.6901 25.4243 36.5736 25.4762 36.4784C25.528 36.3832 25.6249 36.325 25.7412 36.3311C27.6256 36.4213 29.3744 36.4213 31.2588 36.3311C31.3728 36.3244 31.472 36.3832 31.5239 36.4784C31.5757 36.5736 31.5677 36.6895 31.5022 36.7769C30.5982 37.9826 29.6594 39.1166 28.7115 40.147C28.6573 40.2058 28.5804 40.2394 28.5 40.2394ZM26.3152 36.9174C27.0283 37.8442 27.7613 38.724 28.5 39.5405C29.2393 38.724 29.9717 37.8448 30.6848 36.9174C29.196 36.9734 27.804 36.9734 26.3152 36.9174ZM28.5 35.28C27.1497 35.28 25.7885 35.2307 24.4536 35.1327C24.3664 35.1266 24.2871 35.0812 24.2381 35.0095C23.476 33.8957 22.7641 32.7706 22.1223 31.6663C21.4497 30.5082 20.8147 29.3154 20.2356 28.1204C20.1985 28.0442 20.1985 27.9558 20.2356 27.8796C20.8147 26.6846 21.4497 25.4918 22.1223 24.3337C22.7635 23.2305 23.4755 22.1054 24.2387 20.9899C24.2871 20.9188 24.3669 20.8734 24.4541 20.8667C27.124 20.6707 29.8766 20.6707 32.5459 20.8667C32.6331 20.8729 32.7123 20.9182 32.7613 20.9899C33.5246 22.1054 34.2365 23.2305 34.8777 24.3337C35.5503 25.4918 36.1853 26.6846 36.7644 27.8796C36.8015 27.9558 36.8015 28.0442 36.7644 28.1204C36.1853 29.3154 35.5503 30.5082 34.8777 31.6663C34.2359 32.7706 33.524 33.8957 32.7619 35.0095C32.7134 35.0806 32.6336 35.126 32.5464 35.1327C31.2115 35.2307 29.8503 35.28 28.5 35.28ZM24.6343 34.5839C27.1873 34.7642 29.8127 34.7642 32.3652 34.5839C33.0908 33.5182 33.7691 32.4436 34.3824 31.388C35.0254 30.2809 35.6336 29.1418 36.191 28C35.6336 26.8582 35.0254 25.7186 34.3824 24.612C33.7697 23.5575 33.0914 22.4829 32.3646 21.4155C29.8116 21.2352 27.1867 21.2352 24.6337 21.4155C23.9075 22.4829 23.2286 23.5575 22.6159 24.612C21.9729 25.7191 21.3647 26.8582 20.8073 28C21.3647 29.1418 21.9729 30.2814 22.6159 31.388C23.2304 32.4442 23.9087 33.5182 24.6343 34.5839ZM34.7062 34.9278C34.6093 34.9278 34.5175 34.879 34.4651 34.7973C34.4063 34.7054 34.4069 34.589 34.4656 34.4977C34.9946 33.6795 35.4534 32.9347 35.8678 32.2213C36.3033 31.472 36.7388 30.6768 37.1634 29.8586C37.2136 29.7618 37.319 29.7041 37.4273 29.7063C37.5379 29.7102 37.6365 29.7763 37.6799 29.8771C38.2584 31.2206 38.7594 32.564 39.1698 33.8694C39.1938 33.9438 39.1841 34.025 39.1442 34.0922C39.1043 34.16 39.037 34.2082 38.9595 34.225C37.62 34.519 36.2001 34.7547 34.7398 34.9261C34.7284 34.9272 34.717 34.9278 34.7062 34.9278ZM37.3897 30.6494C37.0511 31.2866 36.7069 31.9066 36.3632 32.4985C36.0308 33.0708 35.67 33.6627 35.2688 34.2955C36.3917 34.1488 37.4861 33.9634 38.5331 33.7428C38.2043 32.727 37.8212 31.6904 37.3897 30.6494ZM22.2938 34.9278C22.2824 34.9278 22.271 34.9272 22.2596 34.9261C20.7999 34.7542 19.38 34.5184 18.0405 34.2244C17.963 34.2076 17.8963 34.1594 17.8558 34.0917C17.8159 34.0239 17.8068 33.9433 17.8302 33.8688C18.2406 32.5629 18.7416 31.22 19.3202 29.8766C19.3635 29.7763 19.4621 29.7097 19.5727 29.7058C19.6764 29.6951 19.7864 29.7612 19.8366 29.8581C20.2612 30.6762 20.6967 31.4714 21.1322 32.2207C21.5471 32.9342 22.006 33.679 22.5344 34.4971C22.5937 34.5884 22.5937 34.7049 22.535 34.7967C22.4825 34.879 22.3913 34.9278 22.2938 34.9278ZM18.4674 33.7428C19.5145 33.9634 20.6089 34.1488 21.7318 34.2955C21.33 33.6627 20.9697 33.0708 20.6374 32.4985C20.2931 31.9066 19.9494 31.2861 19.6109 30.6494C19.1788 31.6904 18.7958 32.727 18.4674 33.7428ZM40.5641 33.8246C40.4415 33.8246 40.3292 33.7467 40.2916 33.6263C39.7358 31.8461 39.0102 29.9925 38.1359 28.117C38.1011 28.0431 38.1011 27.9574 38.1359 27.8835C39.0102 26.0081 39.7358 24.1539 40.2922 22.3731C40.3378 22.2281 40.4939 22.1469 40.6404 22.1855C45.8092 23.585 49.02 25.8126 49.02 28C49.02 30.1874 45.8086 32.415 40.6393 33.8145C40.6142 33.8212 40.5886 33.8246 40.5641 33.8246ZM38.7081 28C39.5267 29.7668 40.2146 31.5151 40.7539 33.2013C45.4387 31.8892 48.45 29.8603 48.45 28C48.45 26.1397 45.4387 24.1108 40.7539 22.7987C40.2141 24.4854 39.5261 26.2338 38.7081 28ZM16.436 33.8246C16.4109 33.8246 16.3858 33.8212 16.3601 33.8145C11.1914 32.415 7.98 30.1874 7.98 28C7.98 25.8126 11.1908 23.585 16.3601 22.1855C16.5072 22.1469 16.6628 22.2281 16.7084 22.3731C17.2647 24.1539 17.9903 26.0081 18.8647 27.8835C18.8995 27.9574 18.8995 28.0426 18.8647 28.117C17.9898 29.993 17.2647 31.8466 16.709 33.6263C16.6714 33.7467 16.5585 33.8246 16.436 33.8246ZM16.2461 22.7987C11.5613 24.1108 8.55 26.1397 8.55 28C8.55 29.8603 11.5613 31.8892 16.2461 33.2013C16.7859 31.5151 17.4734 29.7674 18.2919 28C17.4739 26.2338 16.7859 24.4854 16.2461 22.7987ZM37.4177 26.2959C37.3105 26.2959 37.2125 26.2371 37.1634 26.143C36.7319 25.3098 36.3079 24.5364 35.8684 23.7798C35.4546 23.0675 34.9957 22.3227 34.4656 21.5029C34.4063 21.4116 34.4063 21.2951 34.4651 21.2033C34.5238 21.112 34.6286 21.0616 34.7404 21.0745C36.2013 21.2464 37.6211 21.4822 38.9606 21.7756C39.0382 21.7924 39.1049 21.8406 39.1453 21.9083C39.1852 21.9761 39.1943 22.0567 39.171 22.1312C38.76 23.4394 38.2584 24.7828 37.681 26.1246C37.6377 26.2248 37.5391 26.2914 37.4285 26.2954C37.4239 26.2959 37.4205 26.2959 37.4177 26.2959ZM36.3626 23.5021C36.7109 24.1013 37.0494 24.7106 37.3892 25.3512C37.8201 24.3118 38.2031 23.2742 38.532 22.2572C37.4849 22.0366 36.3905 21.8512 35.267 21.7045C35.6706 22.3384 36.0308 22.9303 36.3626 23.5021ZM19.5824 26.2959C19.5789 26.2959 19.5755 26.2959 19.5721 26.2959C19.4615 26.292 19.3629 26.2259 19.3196 26.1251C18.7422 24.7834 18.2406 23.4399 17.8296 22.1318C17.8057 22.0573 17.8154 21.9761 17.8553 21.9089C17.8952 21.8411 17.9624 21.793 18.0399 21.7762C19.3794 21.4822 20.7993 21.2464 22.2602 21.075C22.3714 21.0638 22.4768 21.1126 22.5355 21.2038C22.5942 21.2957 22.5937 21.4122 22.535 21.5034C22.0049 22.3233 21.546 23.0681 21.1322 23.7804C20.6927 24.537 20.2686 25.3098 19.8371 26.1436C19.7876 26.2371 19.6895 26.2959 19.5824 26.2959ZM18.4674 22.2572C18.7963 23.2742 19.1799 24.3118 19.6103 25.3512C19.9506 24.7106 20.2886 24.1013 20.6369 23.5021C20.9692 22.9303 21.3294 22.3384 21.7318 21.7045C20.6089 21.8512 19.5145 22.0366 18.4674 22.2572ZM39.3659 20.7054C39.3448 20.7054 39.3243 20.7032 39.3032 20.6987C37.4861 20.2966 35.5201 20.0004 33.4607 19.8178C33.3769 19.8106 33.3 19.7669 33.2521 19.6986C32.0363 17.976 30.7652 16.3979 29.4747 15.0074C29.3721 14.8971 29.3761 14.7269 29.4838 14.621C31.8784 12.2634 34.1481 10.7526 36.0468 10.253C37.1121 9.97304 38.0065 10.0363 38.6996 10.4334C40.6119 11.531 40.9733 15.3866 39.6418 20.4954C39.6087 20.6209 39.4936 20.7054 39.3659 20.7054ZM33.6443 19.2718C35.5783 19.4482 37.4308 19.7243 39.1567 20.0934C40.3258 15.4381 40.0397 11.8507 38.4117 10.9166C37.8537 10.5969 37.1059 10.5549 36.1939 10.7934C34.4417 11.2549 32.331 12.6482 30.0789 14.8288C31.297 16.1588 32.4951 17.6518 33.6443 19.2718ZM17.6341 20.7054C17.5064 20.7054 17.3913 20.6209 17.3582 20.4949C16.0267 15.386 16.3875 11.531 18.2999 10.4334C18.2999 10.4334 18.2999 10.4334 18.3004 10.4334C18.9935 10.0363 19.889 9.97304 20.9526 10.253C22.8519 10.7531 25.121 12.2634 27.5156 14.621C27.6228 14.7269 27.6268 14.8971 27.5247 15.0074C26.2343 16.3979 24.9632 17.9766 23.7473 19.6986C23.6995 19.7669 23.6231 19.8106 23.5387 19.8178C21.4799 20.0004 19.514 20.2966 17.6962 20.6987C17.6757 20.7032 17.6552 20.7054 17.6341 20.7054ZM18.5877 10.9166C16.9604 11.8507 16.6742 15.4381 17.8427 20.0934C19.5687 19.7243 21.4212 19.4482 23.3552 19.2718C24.5049 17.6518 25.7024 16.1588 26.92 14.8282C24.6679 12.6476 22.5578 11.2543 20.805 10.7929C19.897 10.5549 19.148 10.5963 18.5877 10.9166ZM31.2725 19.6683C31.2679 19.6683 31.2634 19.6683 31.2588 19.6683C29.3744 19.5782 27.6262 19.5782 25.7418 19.6683C25.6244 19.6711 25.5286 19.6157 25.4767 19.521C25.4249 19.4258 25.4328 19.3099 25.4984 19.2226C26.403 18.0158 27.3418 16.8818 28.2891 15.8525C28.3974 15.7354 28.6037 15.7354 28.712 15.8525C29.6588 16.8812 30.5976 18.0152 31.5028 19.2226C31.5677 19.3094 31.5763 19.4258 31.5244 19.521C31.4737 19.6118 31.3768 19.6683 31.2725 19.6683ZM28.5 19.04C29.2079 19.04 29.9404 19.0546 30.6848 19.0831C29.9712 18.1552 29.2382 17.2754 28.5 16.4601C27.7619 17.276 27.0288 18.1552 26.3152 19.0831C27.0596 19.0546 27.7921 19.04 28.5 19.04Z" fill="#1F212B"/>
</svg>
