<svg width="53" height="40" viewBox="0 0 53 40" fill="none" xmlns="http://www.w3.org/2000/svg">
<path d="M44.9672 22.5109C43.1408 22.5204 41.5591 22.9586 40.2338 23.6129C39.7493 22.6451 39.2577 21.7936 39.1758 21.1607C39.0796 20.4221 38.968 19.9803 39.0843 19.1004C39.2007 18.2205 39.7102 16.9736 39.703 16.8798C39.6959 16.786 39.589 16.3383 38.5357 16.33C37.4824 16.3228 36.5811 16.533 36.4754 16.8109C36.3697 17.0888 36.1667 17.7146 36.0408 18.3677C35.8567 19.3225 33.9377 22.7294 32.8488 24.5106C32.4925 23.8148 32.1897 23.202 32.1268 22.7175C32.0306 21.9789 31.919 21.5371 32.0353 20.6572C32.1517 19.7773 32.6612 18.5304 32.654 18.4366C32.6469 18.3428 32.54 17.8951 31.4867 17.8868C30.4334 17.8796 29.5321 18.0898 29.4264 18.3677C29.3207 18.6456 29.2067 19.2951 28.9918 19.9245C28.7757 20.5527 26.2261 26.2349 25.5575 27.7086C25.2167 28.4591 24.921 29.0623 24.712 29.4732C24.7108 29.472 24.7108 29.4708 24.7108 29.4708C24.7108 29.4708 24.6978 29.4981 24.6764 29.5445C24.4971 29.8948 24.3914 30.0883 24.3914 30.0883C24.3914 30.0883 24.3926 30.0907 24.395 30.0955C24.2525 30.3531 24.1005 30.5918 24.0257 30.5918C23.9734 30.5918 23.8677 29.9066 24.0482 28.9661C24.4282 26.9949 25.339 23.9216 25.3307 23.8148C25.326 23.7601 25.5005 23.2246 24.7358 22.9443C23.9924 22.6724 23.7276 23.126 23.6599 23.1272C23.5946 23.1284 23.5459 23.2875 23.5459 23.2875C23.5459 23.2875 24.3736 19.8307 21.9665 19.8307C20.4608 19.8307 18.3755 21.4778 17.3483 22.9705C16.7 23.3243 15.3118 24.082 13.8405 24.8906C13.2752 25.2018 12.6981 25.5188 12.1507 25.8205C12.1138 25.7789 12.0758 25.7385 12.0378 25.697C9.11778 22.5821 3.72178 20.3793 3.94978 16.191C4.03291 14.6686 4.56253 10.6596 14.3202 5.79802C22.3133 1.81514 28.7127 2.91121 29.8183 5.33964C31.3977 8.81071 26.3983 15.26 18.0977 16.191C14.9353 16.5461 13.2693 15.3194 12.8548 14.8634C12.419 14.3825 12.3537 14.3611 12.191 14.4513C11.9262 14.5986 12.0937 15.0225 12.191 15.2755C12.4392 15.9203 13.4557 17.0638 15.1895 17.6338C16.7154 18.135 20.4287 18.4093 24.9187 16.672C29.9489 14.7268 33.876 9.31421 32.7217 4.79102C31.5485 0.190644 23.92 -1.32223 16.7 1.24277C12.3977 2.76989 7.74622 5.16627 4.40103 8.29414C0.424093 12.0134 -0.210032 15.2517 0.0512183 16.6043C0.979843 21.4113 7.60491 24.5415 10.2578 26.8607C10.1272 26.9331 10.0037 27.0008 9.89203 27.0626C8.56203 27.7205 3.51159 30.3638 2.24809 33.1556C0.814781 36.3227 2.47609 38.5956 3.57572 38.902C6.98266 39.8496 10.4787 38.1443 12.3585 35.3418C14.2371 32.5405 14.0079 28.8913 13.1458 27.2265C13.1351 27.2063 13.1232 27.1861 13.1125 27.1647C13.4557 26.9616 13.806 26.755 14.1528 26.5508C14.8297 26.153 15.4947 25.7825 16.0706 25.469C15.7476 26.3525 15.5113 27.4129 15.389 28.9436C15.2441 30.7415 15.9815 33.0654 16.9458 33.9798C17.3709 34.3823 17.8815 34.3918 18.2045 34.3918C19.3267 34.3918 19.8385 33.4585 20.4026 32.3541C21.0937 31.0003 21.7077 29.4233 21.7077 29.4233C21.7077 29.4233 20.9382 33.6817 23.0353 33.6817C23.8 33.6817 24.5683 32.6901 24.9115 32.1855C24.9127 32.1914 24.9127 32.1938 24.9127 32.1938C24.9127 32.1938 24.9329 32.1605 24.9721 32.0952C25.0517 31.9741 25.0968 31.8969 25.0968 31.8969C25.0968 31.8969 25.098 31.8886 25.1003 31.8743C25.4079 31.3411 26.0895 30.1251 27.1108 28.1195C28.4313 25.5283 29.6972 22.2817 29.6972 22.2817C29.6972 22.2817 29.8147 23.075 30.2007 24.3883C30.4275 25.1602 30.9096 26.014 31.2908 26.8334C30.9844 27.2585 30.7968 27.502 30.7968 27.502C30.7968 27.502 30.798 27.5067 30.8015 27.515C30.5569 27.8404 30.2826 28.1907 29.9952 28.5327C28.9526 29.7736 27.7117 31.1915 27.5454 31.6C27.3495 32.0821 27.3958 32.436 27.7746 32.7222C28.0513 32.93 28.5429 32.9633 29.0571 32.9288C29.994 32.8659 30.6519 32.6331 30.9773 32.4918C31.4843 32.3125 32.0745 32.0311 32.6279 31.6238C33.6503 30.8721 34.2667 29.7974 34.2073 28.3724C34.174 27.5875 33.9247 26.8096 33.6076 26.0758C33.7002 25.9428 33.7928 25.8074 33.8867 25.672C35.4981 23.316 36.7485 20.7273 36.7485 20.7273C36.7485 20.7273 36.8661 21.5205 37.252 22.8339C37.4468 23.4977 37.8327 24.2233 38.1795 24.9334C36.6642 26.1648 35.7249 27.5958 35.3983 28.5339C34.7951 30.27 35.2677 31.0561 36.1536 31.2355C36.555 31.3162 37.1226 31.1321 37.5489 30.9516C38.0797 30.7759 38.7174 30.4826 39.3135 30.0444C40.336 29.2927 41.3192 28.2406 41.2598 26.8168C41.2325 26.1684 41.0568 25.5248 40.8181 24.9073C42.103 24.3717 43.7655 24.0748 45.884 24.3218C50.4285 24.8526 51.3192 27.6896 51.1493 28.8771C50.9783 30.0646 50.026 30.7177 49.7065 30.9148C49.3883 31.112 49.2909 31.1808 49.317 31.3269C49.3562 31.5395 49.5035 31.5323 49.7754 31.486C50.1495 31.4231 52.1611 30.5206 52.2478 28.3285C52.3558 25.5426 49.6899 22.486 44.9672 22.5109ZM9.93953 34.3194C8.43378 35.9617 6.33191 36.5816 5.42941 36.0591C4.45566 35.495 4.84159 33.0773 6.68816 31.334C7.81391 30.2724 9.26741 29.2939 10.2317 28.6918C10.4513 28.56 10.7732 28.3665 11.165 28.1313C11.2303 28.0945 11.2672 28.0743 11.2672 28.0743L11.266 28.072C11.342 28.0268 11.4192 27.9805 11.4987 27.9318C12.172 30.4125 11.5201 32.5963 9.93953 34.3194ZM20.9061 26.8655C20.3824 28.1432 19.2852 31.4136 18.6166 31.2378C18.043 31.087 17.6939 28.6016 18.5026 26.1553C18.9087 24.9239 19.778 23.4526 20.2886 22.8814C21.1103 21.9623 22.0152 21.6618 22.2349 22.0347C22.514 22.5097 21.235 26.0639 20.9061 26.8655ZM29.9655 31.188C29.7435 31.3043 29.5392 31.3768 29.4454 31.321C29.3753 31.2794 29.5368 31.1262 29.5368 31.1262C29.5368 31.1262 30.6697 29.9066 31.1162 29.3521C31.3763 29.0291 31.6767 28.6455 32.0045 28.218C32.0068 28.2608 32.008 28.3035 32.008 28.3451C32.0057 29.8057 30.5949 30.7913 29.9655 31.188ZM36.9445 29.5967C36.7782 29.4791 36.8067 29.098 37.3518 27.9093C37.5655 27.4426 38.0548 26.6576 38.9027 25.9071C39.0012 26.2159 39.0606 26.5116 39.0594 26.7871C39.0487 28.6253 37.7377 29.3117 36.9445 29.5967Z" fill="#F06292"/>
</svg>
