<svg width="31" height="24" viewBox="0 0 31 24" fill="none" xmlns="http://www.w3.org/2000/svg">
<path d="M26.6786 13.7943C25.5951 13.8002 24.6566 14.0687 23.8704 14.4696C23.5829 13.8766 23.2912 13.3548 23.2426 12.967C23.1856 12.5143 23.1193 12.2436 23.1884 11.7044C23.2574 11.1652 23.5597 10.4012 23.5554 10.3437C23.5512 10.2862 23.4878 10.0118 22.8629 10.0067C22.238 10.0024 21.7032 10.1312 21.6405 10.3015C21.5778 10.4717 21.4573 10.8552 21.3827 11.2554C21.2735 11.8405 20.1349 13.9282 19.4889 15.0197C19.2775 14.5933 19.0979 14.2178 19.0605 13.9209C19.0035 13.4683 18.9372 13.1976 19.0063 12.6584C19.0753 12.1192 19.3776 11.3551 19.3733 11.2977C19.3691 11.2402 19.3057 10.9658 18.6808 10.9607C18.0559 10.9564 17.5211 11.0852 17.4584 11.2554C17.3957 11.4257 17.3281 11.8238 17.2006 12.2094C17.0723 12.5944 15.5597 16.0763 15.163 16.9794C14.9608 17.4393 14.7854 17.809 14.6614 18.0607L14.6607 18.0593C14.6607 18.0593 14.653 18.076 14.6403 18.1044C14.5339 18.3191 14.4712 18.4377 14.4712 18.4377C14.4712 18.4377 14.4719 18.4391 14.4733 18.442C14.3888 18.5999 14.2986 18.7462 14.2542 18.7462C14.2232 18.7462 14.1605 18.3263 14.2676 17.75C14.493 16.5421 15.0334 14.6588 15.0285 14.5933C15.0257 14.5599 15.1292 14.2317 14.6755 14.0599C14.2345 13.8933 14.0774 14.1713 14.0372 14.172C13.9985 14.1727 13.9696 14.2702 13.9696 14.2702C13.9696 14.2702 14.4606 12.152 13.0325 12.152C12.1392 12.152 10.902 13.1612 10.2926 14.0759C9.90794 14.2928 9.08434 14.7571 8.21142 15.2526C7.87606 15.4433 7.53366 15.6375 7.20887 15.8224C7.18703 15.7969 7.16449 15.7722 7.14194 15.7467C5.4095 13.838 2.2081 12.4881 2.34337 9.92161C2.39269 8.98872 2.70691 6.53207 8.49605 3.55294C13.2383 1.11229 17.035 1.78394 17.6909 3.27205C18.6279 5.39907 15.6619 9.35111 10.7372 9.92161C8.861 10.1392 7.87254 9.38749 7.62666 9.10806C7.3681 8.81335 7.32935 8.80025 7.23283 8.85555C7.07572 8.94579 7.17505 9.20557 7.23283 9.36057C7.38007 9.7557 7.98315 10.4565 9.01177 10.8057C9.9171 11.1128 12.1202 11.2809 14.784 10.2163C17.7684 9.02438 20.0983 5.7076 19.4135 2.93586C18.7174 0.116824 14.1915 -0.810244 9.90794 0.761549C7.35541 1.69735 4.59576 3.16581 2.61109 5.08252C0.25161 7.36162 -0.12461 9.34601 0.0303874 10.1748C0.581332 13.1205 4.51192 15.0387 6.08585 16.4598C6.00835 16.5042 5.93508 16.5457 5.86885 16.5835C5.07977 16.9867 2.0834 18.6065 1.33377 20.3173C0.483402 22.258 1.46904 23.6508 2.12144 23.8385C4.14275 24.4192 6.21689 23.3743 7.33216 21.6569C8.44674 19.9403 8.31076 17.7042 7.79927 16.684C7.79293 16.6716 7.78588 16.6592 7.77954 16.6461C7.98315 16.5217 8.19099 16.3951 8.39671 16.2699C8.7983 16.0261 9.19284 15.7991 9.53453 15.607C9.3429 16.1484 9.2027 16.7982 9.13013 17.7362C9.04418 18.8379 9.4817 20.262 10.0538 20.8223C10.306 21.069 10.6089 21.0748 10.8006 21.0748C11.4664 21.0748 11.77 20.5028 12.1047 19.8261C12.5147 18.9965 12.879 18.0302 12.879 18.0302C12.879 18.0302 12.4224 20.6396 13.6666 20.6396C14.1203 20.6396 14.5762 20.032 14.7798 19.7228C14.7805 19.7264 14.7805 19.7278 14.7805 19.7278C14.7805 19.7278 14.7925 19.7075 14.8157 19.6675C14.8629 19.5932 14.8897 19.5459 14.8897 19.5459C14.8897 19.5459 14.8904 19.5408 14.8918 19.5321C15.0743 19.2054 15.4787 18.4602 16.0846 17.2312C16.868 15.6434 17.619 13.6539 17.619 13.6539C17.619 13.6539 17.6888 14.14 17.9178 14.9448C18.0523 15.4178 18.3384 15.941 18.5645 16.4431C18.3828 16.7036 18.2714 16.8528 18.2714 16.8528C18.2714 16.8528 18.2722 16.8557 18.2743 16.8608C18.1291 17.0602 17.9664 17.2748 17.7959 17.4844C17.1773 18.2448 16.4411 19.1137 16.3424 19.364C16.2262 19.6594 16.2537 19.8763 16.4784 20.0517C16.6426 20.179 16.9342 20.1994 17.2393 20.1783C17.7952 20.1397 18.1855 19.9971 18.3785 19.9105C18.6794 19.8006 19.0295 19.6282 19.3578 19.3786C19.9644 18.9179 20.3301 18.2594 20.2949 17.3862C20.2751 16.9052 20.1272 16.4285 19.9391 15.9788C19.994 15.8973 20.049 15.8144 20.1046 15.7314C21.0607 14.2877 21.8026 12.7014 21.8026 12.7014C21.8026 12.7014 21.8723 13.1874 22.1013 13.9923C22.2168 14.399 22.4458 14.8436 22.6515 15.2788C21.7525 16.0334 21.1953 16.9103 21.0015 17.4851C20.6436 18.549 20.924 19.0307 21.4496 19.1406C21.6877 19.1901 22.0245 19.0773 22.2774 18.9667C22.5923 18.859 22.9707 18.6793 23.3244 18.4107C23.931 17.9501 24.5143 17.3054 24.4791 16.4329C24.4629 16.0356 24.3586 15.6412 24.217 15.2628C24.9793 14.9346 25.9656 14.7527 27.2225 14.904C29.9188 15.2293 30.4472 16.9678 30.3464 17.6954C30.245 18.4231 29.6799 18.8233 29.4904 18.9441C29.3016 19.0649 29.2438 19.1071 29.2593 19.1966C29.2826 19.3269 29.3699 19.3225 29.5313 19.2941C29.7532 19.2556 30.9467 18.7025 30.9981 17.3592C31.0622 15.6521 29.4806 13.779 26.6786 13.7943ZM5.89703 21.0304C5.00368 22.0368 3.75666 22.4166 3.22122 22.0965C2.6435 21.7508 2.87247 20.2692 3.96802 19.201C4.63592 18.5505 5.49827 17.9508 6.07035 17.5819C6.20069 17.5011 6.39161 17.3825 6.62411 17.2384C6.66286 17.2159 6.6847 17.2035 6.6847 17.2035L6.684 17.2021C6.72909 17.1744 6.77488 17.146 6.82208 17.1162C7.22155 18.6363 6.83476 19.9745 5.89703 21.0304ZM12.4034 16.4627C12.0927 17.2457 11.4417 19.2498 11.0451 19.1421C10.7048 19.0496 10.4976 17.5266 10.9774 16.0276C11.2184 15.273 11.7341 14.3714 12.037 14.0214C12.5246 13.4581 13.0614 13.274 13.1918 13.5025C13.3573 13.7936 12.5985 15.9716 12.4034 16.4627ZM17.7783 19.1115C17.6465 19.1828 17.5253 19.2272 17.4697 19.193C17.4281 19.1675 17.5239 19.0737 17.5239 19.0737C17.5239 19.0737 18.1961 18.3263 18.461 17.9865C18.6153 17.7886 18.7935 17.5535 18.988 17.2916C18.9894 17.3178 18.9901 17.344 18.9901 17.3694C18.9887 18.2645 18.1517 18.8685 17.7783 19.1115ZM21.9188 18.1364C21.8202 18.0644 21.8371 17.8308 22.1605 17.1024C22.2873 16.8164 22.5775 16.3354 23.0806 15.8755C23.1391 16.0647 23.1743 16.2459 23.1736 16.4147C23.1672 17.5412 22.3894 17.9618 21.9188 18.1364Z" fill="#00C2FF"/>
</svg>
