<svg width="37" height="37" viewBox="0 0 37 37" fill="none" xmlns="http://www.w3.org/2000/svg">
<path d="M18.5 3.08333C14.4112 3.08333 10.49 4.70758 7.59877 7.59877C4.70758 10.49 3.08333 14.4112 3.08333 18.5C3.08333 22.5887 4.70758 26.51 7.59877 29.4012C10.49 32.2924 14.4112 33.9167 18.5 33.9167C22.5888 33.9167 26.51 32.2924 29.4012 29.4012C32.2924 26.51 33.9167 22.5887 33.9167 18.5C33.9167 14.4112 32.2924 10.49 29.4012 7.59877C26.51 4.70758 22.5888 3.08333 18.5 3.08333V3.08333Z" fill="#29B6F6"/>
<path d="M26.1698 11.5625L23.2823 26.3055C23.2823 26.3055 23.1582 26.9792 22.3226 26.9792C21.8786 26.9792 21.6496 26.768 21.6496 26.768L15.3951 21.5779L12.3349 20.0355L8.40749 18.991C8.40749 18.991 7.70834 18.7891 7.70834 18.2109C7.70834 17.7292 8.42753 17.4995 8.42753 17.4995L24.8586 10.972C24.8578 10.9713 25.3604 10.7909 25.7266 10.7917C25.9517 10.7917 26.2083 10.888 26.2083 11.1771C26.2083 11.3698 26.1698 11.5625 26.1698 11.5625Z" fill="white"/>
<path d="M17.7292 23.5143L15.0883 26.1151C15.0883 26.1151 14.9734 26.2037 14.82 26.2076C14.7668 26.2091 14.7098 26.2006 14.6512 26.1744L15.3943 21.5764L17.7292 23.5143Z" fill="#B0BEC5"/>
<path d="M23.0456 14.0261C22.9153 13.8565 22.6748 13.8257 22.5053 13.9544L12.3333 20.0417C12.3333 20.0417 13.9567 24.5834 14.2042 25.3697C14.4524 26.1567 14.6512 26.1752 14.6512 26.1752L15.3943 21.5772L22.9732 14.5657C23.1427 14.4369 23.1743 14.1957 23.0456 14.0261Z" fill="#CFD8DC"/>
</svg>
