<svg width="37" height="37" viewBox="0 0 37 37" fill="none" xmlns="http://www.w3.org/2000/svg">
<path d="M18.5 3.08333C10.0208 3.08333 3.08334 10.0208 3.08334 18.5C3.08334 26.9792 10.0208 33.9167 18.5 33.9167C26.9792 33.9167 33.9167 26.9792 33.9167 18.5C33.9167 10.0208 26.9792 3.08333 18.5 3.08333Z" fill="#1976D2"/>
<path d="M19.425 25.5917C12.4875 25.5917 8.55625 20.8896 8.40208 12.95H11.8708C11.9479 18.7312 14.5688 21.1979 16.5729 21.6604V12.95H19.8104V17.9604C21.8146 17.7292 23.8958 15.4937 24.5896 12.95H27.8271C27.2875 16.0333 24.975 18.3458 23.3563 19.2708C24.975 20.0417 27.5958 22.0458 28.5208 25.5917H24.8979C24.1271 23.2021 22.2 21.3521 19.6563 21.0437V25.5917H19.425Z" fill="white"/>
</svg>
