<svg width="57" height="57" viewBox="0 0 57 57" fill="none" xmlns="http://www.w3.org/2000/svg">
<path d="M28.5 4.75L8.3125 16.625V40.375L28.5 52.25L48.6875 40.375V16.625L28.5 4.75Z" fill="#ECEFF1"/>
<path d="M27.9062 29.0938V39.7812L17.8125 34.4375V23.1562L27.9062 29.0938Z" fill="#0277BD"/>
<path d="M29.0938 29.0938V39.7812L39.1875 34.4375V23.1562L29.0938 29.0938Z" fill="#0277BD"/>
<path d="M28.5 27.9062L18.4062 21.9688L28.5 16.625L38.5938 21.9688L28.5 27.9062Z" fill="#0277BD"/>
<path d="M27.9062 8.3125V15.4375L17.2188 21.375L11.2812 17.8125L27.9062 8.3125Z" fill="#81D4FA"/>
<path d="M27.9062 48.6875V41.5625L17.2188 35.625L11.2812 39.1875L27.9062 48.6875Z" fill="#81D4FA"/>
<path d="M16.625 22.5625L10.6875 19V38L16.625 34.4375V22.5625Z" fill="#81D4FA"/>
<path d="M29.0938 8.3125V15.4375L39.7812 21.375L45.7188 17.8125L29.0938 8.3125Z" fill="#81D4FA"/>
<path d="M29.0938 48.6875V41.5625L39.7812 35.625L45.7188 39.1875L29.0938 48.6875Z" fill="#81D4FA"/>
<path d="M40.375 22.5625L46.3125 19V38L40.375 34.4375V22.5625Z" fill="#81D4FA"/>
</svg>
